<?xml version="1.0" encoding="utf-8"?><svg xmlns="http://www.w3.org/2000/svg" xmlns:xlink="http://www.w3.org/1999/xlink"><defs><svg viewBox="0 0 16 16" id="icon-clock" xmlns="http://www.w3.org/2000/svg"><g clip-path="url(#aclip0_667_354)"><path d="M8 4v4l2.667 1.333m4-1.333A6.667 6.667 0 111.333 8a6.667 6.667 0 0113.334 0z"/></g><defs><clipPath id="aclip0_667_354"><path fill="#fff" d="M0 0h16v16H0z"/></clipPath></defs></svg><svg fill="none" viewBox="0 0 20 14" id="icon-hamburger" xmlns="http://www.w3.org/2000/svg"><path d="M1 7h18M1 1h18M7 13h12" stroke="#2E58DB" stroke-linecap="round" stroke-linejoin="round"/></svg><svg fill="none" viewBox="0 0 24 24" id="icon-phone" xmlns="http://www.w3.org/2000/svg"><path d="M14.05 6A5 5 0 0118 9.95M14.05 2A9 9 0 0122 9.94m-11.773 3.923a14.604 14.604 0 01-2.847-4.01 1.698 1.698 0 01-.113-.266 1.046 1.046 0 01.147-.862c.048-.067.105-.124.22-.238.35-.35.524-.524.638-.7a2 2 0 000-2.18c-.114-.176-.289-.351-.638-.7l-.195-.196c-.532-.531-.797-.797-1.083-.941a2 2 0 00-1.805 0c-.285.144-.551.41-1.083.941l-.157.158c-.53.53-.795.794-.997 1.154-.224.4-.386 1.02-.384 1.479 0 .413.081.695.241 1.26a19.038 19.038 0 004.874 8.283 19.039 19.039 0 008.283 4.873c.565.16.847.24 1.26.242a3.377 3.377 0 001.478-.384c.36-.203.625-.468 1.155-.997l.157-.158c.532-.531.797-.797.942-1.082a2 2 0 000-1.806c-.145-.285-.41-.55-.942-1.082l-.195-.195c-.35-.35-.524-.524-.7-.639a2 2 0 00-2.18 0c-.176.114-.35.29-.7.639-.115.114-.172.171-.239.22-.237.17-.581.228-.862.146a1.695 1.695 0 01-.266-.113 14.605 14.605 0 01-4.01-2.846z" stroke="#2E58DB" stroke-linecap="round" stroke-linejoin="round"/></svg><svg viewBox="0 0 16 16" id="icon-place" xmlns="http://www.w3.org/2000/svg"><path d="M8 8.667a2 2 0 100-4 2 2 0 000 4z"/><path d="M8 14.667c2.667-2.667 5.333-5.055 5.333-8a5.333 5.333 0 00-10.666 0c0 2.945 2.666 5.333 5.333 8z"/></svg><svg fill="none" viewBox="0 0 20 20" id="icon-search" xmlns="http://www.w3.org/2000/svg"><path d="M19 19l-3.5-3.5m2.5-6a8.5 8.5 0 11-17 0 8.5 8.5 0 0117 0z" stroke="#9CA5B3" stroke-linecap="round" stroke-linejoin="round"/></svg></defs></svg>