<?xml version="1.0" encoding="utf-8"?><svg xmlns="http://www.w3.org/2000/svg" xmlns:xlink="http://www.w3.org/1999/xlink"><defs><svg fill="none" viewBox="0 0 24 24" id="icon-arrow-up" xmlns="http://www.w3.org/2000/svg"><path d="M12 10l-4 4h8l-4-4z" fill="#646970"/></svg><svg viewBox="0 0 16 16" id="icon-clock" xmlns="http://www.w3.org/2000/svg"><g clip-path="url(#bclip0_667_354)"><path d="M8 4v4l2.667 1.333m4-1.333A6.667 6.667 0 111.333 8a6.667 6.667 0 0113.334 0z"/></g><defs><clipPath id="bclip0_667_354"><path fill="#fff" d="M0 0h16v16H0z"/></clipPath></defs></svg><svg fill="none" viewBox="0 0 32 32" id="icon-close" xmlns="http://www.w3.org/2000/svg"><rect x=".5" y=".5" width="31" height="31" rx="15.5" stroke="#DCE1E9"/><path d="M21 11L11 21m0-10l10 10" stroke="#646970" stroke-linecap="round" stroke-linejoin="round"/></svg><svg viewBox="0 0 24 24" id="icon-completion-minus" xmlns="http://www.w3.org/2000/svg"><path d="M5 12h14"/></svg><svg viewBox="0 0 24 24" id="icon-completion-plus" xmlns="http://www.w3.org/2000/svg"><path d="M12 5v14m-7-7h14"/></svg><svg fill="none" viewBox="0 0 24 24" id="icon-fuel" xmlns="http://www.w3.org/2000/svg"><path d="M12 21.5a7 7 0 007-7c0-2-1-3.9-3-5.5s-3.5-4-4-6.5C11.5 5 10 7.4 8 9c-2 1.6-3 3.5-3 5.5a7 7 0 007 7z" stroke="#2E58DB" stroke-linecap="round" stroke-linejoin="round"/></svg><svg fill="none" viewBox="0 0 24 24" id="icon-gear" xmlns="http://www.w3.org/2000/svg"><path fill-rule="evenodd" clip-rule="evenodd" d="M7 8V3H5v5h2zm1-5a1 1 0 00-1-1H5a1 1 0 00-1 1v5a1 1 0 001 1h2a1 1 0 001-1V6.5h3.5v11H8V16a1 1 0 00-1-1H5a1 1 0 00-1 1v5a1 1 0 001 1h2a1 1 0 001-1v-2.5h8V21a1 1 0 001 1h2a1 1 0 001-1v-5a1 1 0 00-1-1h-2a1 1 0 00-1 1v1.5h-3.5v-11H16V8a1 1 0 001 1h2a1 1 0 001-1V3a1 1 0 00-1-1h-2a1 1 0 00-1 1v2.5H8V3zm9 0h2v5h-2V3zM7 21v-5H5v5h2zm10-5h2v5h-2v-5z" fill="#2E58DB"/></svg><svg fill="none" viewBox="0 0 20 14" id="icon-hamburger" xmlns="http://www.w3.org/2000/svg"><path d="M1 7h18M1 1h18M7 13h12" stroke="#2E58DB" stroke-linecap="round" stroke-linejoin="round"/></svg><svg fill="none" viewBox="0 0 24 24" id="icon-info" xmlns="http://www.w3.org/2000/svg"><path d="M12 16v-5m0-3h-.01M2 12C2 6.477 6.477 2 12 2s10 4.477 10 10-4.477 10-10 10S2 17.523 2 12z" stroke="#2E58DB" stroke-linecap="round" stroke-linejoin="round"/></svg><svg fill="none" viewBox="0 0 32 32" id="icon-left" xmlns="http://www.w3.org/2000/svg"><rect x=".5" y=".5" width="31" height="31" rx="15.5" stroke="#9CA5B3"/><path d="M14 16l4-4v8l-4-4z" fill="#151515"/></svg><svg fill="none" viewBox="0 0 24 24" id="icon-minus" xmlns="http://www.w3.org/2000/svg"><g clip-path="url(#kclip0_1_447)"><path d="M5 12h14" stroke="#151515" stroke-linecap="round" stroke-linejoin="round"/></g><rect x=".5" y=".5" width="23" height="23" rx="11.5" stroke="#9CA5B3"/><defs><clipPath id="kclip0_1_447"><rect width="24" height="24" rx="12" fill="#fff"/></clipPath></defs></svg><svg fill="none" viewBox="0 0 24 24" id="icon-phone" xmlns="http://www.w3.org/2000/svg"><path d="M14.05 6A5 5 0 0118 9.95M14.05 2A9 9 0 0122 9.94m-11.773 3.923a14.604 14.604 0 01-2.847-4.01 1.698 1.698 0 01-.113-.266 1.046 1.046 0 01.147-.862c.048-.067.105-.124.22-.238.35-.35.524-.524.638-.7a2 2 0 000-2.18c-.114-.176-.289-.351-.638-.7l-.195-.196c-.532-.531-.797-.797-1.083-.941a2 2 0 00-1.805 0c-.285.144-.551.41-1.083.941l-.157.158c-.53.53-.795.794-.997 1.154-.224.4-.386 1.02-.384 1.479 0 .413.081.695.241 1.26a19.038 19.038 0 004.874 8.283 19.039 19.039 0 008.283 4.873c.565.16.847.24 1.26.242a3.377 3.377 0 001.478-.384c.36-.203.625-.468 1.155-.997l.157-.158c.532-.531.797-.797.942-1.082a2 2 0 000-1.806c-.145-.285-.41-.55-.942-1.082l-.195-.195c-.35-.35-.524-.524-.7-.639a2 2 0 00-2.18 0c-.176.114-.35.29-.7.639-.115.114-.172.171-.239.22-.237.17-.581.228-.862.146a1.695 1.695 0 01-.266-.113 14.605 14.605 0 01-4.01-2.846z" stroke="#2E58DB" stroke-linecap="round" stroke-linejoin="round"/></svg><svg viewBox="0 0 16 16" id="icon-place" xmlns="http://www.w3.org/2000/svg"><path d="M8 8.667a2 2 0 100-4 2 2 0 000 4z"/><path d="M8 14.667c2.667-2.667 5.333-5.055 5.333-8a5.333 5.333 0 00-10.666 0c0 2.945 2.666 5.333 5.333 8z"/></svg><svg fill="none" viewBox="0 0 24 24" id="icon-plus" xmlns="http://www.w3.org/2000/svg"><g clip-path="url(#nclip0_1_449)"><path d="M12 5v14m-7-7h14" stroke="#151515" stroke-linecap="round" stroke-linejoin="round"/></g><rect x=".5" y=".5" width="23" height="23" rx="11.5" stroke="#9CA5B3"/><defs><clipPath id="nclip0_1_449"><rect width="24" height="24" rx="12" fill="#fff"/></clipPath></defs></svg><svg fill="none" viewBox="0 0 24 24" id="icon-power" xmlns="http://www.w3.org/2000/svg"><path d="M13 2L4.093 12.688c-.348.418-.523.628-.525.804a.5.5 0 00.185.397c.138.111.41.111.955.111H12l-1 8 8.907-10.688c.348-.418.523-.628.525-.804a.5.5 0 00-.185-.397c-.138-.111-.41-.111-.955-.111H12l1-8z" stroke="#2E58DB" stroke-linecap="round" stroke-linejoin="round"/></svg><svg fill="none" viewBox="0 0 32 32" id="icon-right" xmlns="http://www.w3.org/2000/svg"><rect x=".5" y=".5" width="31" height="31" rx="15.5" stroke="#9CA5B3"/><path d="M18 16l-4-4v8l4-4z" fill="#151515"/></svg><svg fill="none" viewBox="0 0 20 20" id="icon-search" xmlns="http://www.w3.org/2000/svg"><path d="M19 19l-3.5-3.5m2.5-6a8.5 8.5 0 11-17 0 8.5 8.5 0 0117 0z" stroke="#9CA5B3" stroke-linecap="round" stroke-linejoin="round"/></svg><svg fill="none" viewBox="0 0 24 24" id="icon-volume" xmlns="http://www.w3.org/2000/svg"><path d="M5 12a7 7 0 017-7m4.5 2.5L12 12m10 0c0 5.523-4.477 10-10 10S2 17.523 2 12 6.477 2 12 2s10 4.477 10 10zm-9 0a1 1 0 11-2 0 1 1 0 012 0z" stroke="#2E58DB" stroke-linecap="round" stroke-linejoin="round"/></svg></defs></svg>